<svg id="Layer_32" data-name="Layer 32" xmlns="http://www.w3.org/2000/svg" xmlns:xlink="http://www.w3.org/1999/xlink" viewBox="0 0 2048 2048"><defs><style>.cls-1{fill:url(#New_Gradient_Swatch_1);}.cls-2{fill:url(#New_Gradient_Swatch_1-2);}.cls-3{fill:url(#New_Gradient_Swatch_1-3);}.cls-4,.cls-5{fill:#fff;}.cls-5{font-size:99px;font-family:ArialMT, Arial;}.cls-6{font-size:12px;font-family:MyriadPro-Regular, Myriad Pro;}</style><linearGradient id="New_Gradient_Swatch_1" x1="585.25" y1="830.03" x2="921.06" y2="830.03" gradientUnits="userSpaceOnUse"><stop offset="0" stop-color="#007cf3"/><stop offset="1" stop-color="#3a4db9"/></linearGradient><linearGradient id="New_Gradient_Swatch_1-2" x1="977.69" y1="1221.34" x2="1265.56" y2="1221.34" xlink:href="#New_Gradient_Swatch_1"/><linearGradient id="New_Gradient_Swatch_1-3" x1="629.8" y1="1011.7" x2="1662.56" y2="1011.7" xlink:href="#New_Gradient_Swatch_1"/></defs><polygon class="cls-1" points="585.25 657.97 832.32 1002.08 921.06 878.76 762.26 657.97 585.25 657.97"/><polygon class="cls-2" points="977.69 1206.07 1088.42 1360.41 1265.56 1360.41 1066.13 1082.27 977.69 1206.07"/><path class="cls-3" d="M1662.56,874.63a211.58,211.58,0,0,1-11.35,68.6c-.28.83-.57,1.66-.87,2.5a212.15,212.15,0,0,1-199.87,141H1337.69l196.56,273.72H1357.82l-248.69-341.19L1164,945.73h286.49a71.09,71.09,0,0,0,0-142.18H1204.6L806,1360.41l-176.22.43,501.11-698.29h319.56c92.19,0,170.65,58.83,199.87,141A211.56,211.56,0,0,1,1662.56,874.63Z"/><path class="cls-4" d="M538.22,871.85h0a103.08,103.08,0,0,1-87.61-48.77l-32.68-52.72q-9.39-15.23-18.79-30.43l-.09,20.69V871.85H341.84V642.14h0a121.36,121.36,0,0,1,102.4,56.23L462,726.28q9.56,15.35,19.13,30.68-.15-23.41-.29-46.83v-68h57.38Zm-120.41-68"/><path class="cls-4" d="M526.44,1066.46v54.86H446a92.42,92.42,0,0,1-92.42-92.42V891.62H526.44v53H422.78V978h83.81v51H422.78a37.52,37.52,0,0,0,37.53,37.52Z"/><path class="cls-4" d="M440,1146.09a114.85,114.85,0,1,0,114.85,114.85A114.85,114.85,0,0,0,440,1146.09Zm0,168.47a53.62,53.62,0,1,1,53.62-53.62A53.62,53.62,0,0,1,440,1314.56Z"/><text class="cls-5" transform="translate(1662.56 743.41)">TM</text><text class="cls-6" transform="translate(1396.23 1192.83)">title</text></svg>