<svg id="Layer_31" data-name="Layer 31" xmlns="http://www.w3.org/2000/svg" xmlns:xlink="http://www.w3.org/1999/xlink" viewBox="0 0 1740.72 1740.72"><defs><style>.cls-1{fill:url(#New_Gradient_Swatch_1);}.cls-2{fill:url(#New_Gradient_Swatch_1-2);}.cls-3{fill:url(#New_Gradient_Swatch_1-3);}.cls-4{fill:url(#New_Gradient_Swatch_1-4);}.cls-5{fill:url(#New_Gradient_Swatch_1-5);}.cls-6{fill:url(#New_Gradient_Swatch_1-6);}.cls-7{fill:url(#New_Gradient_Swatch_1-7);}.cls-8,.cls-9{fill:#092730;}.cls-9{font-size:99px;font-family:ArialMT, Arial;}.cls-10{fill:none;stroke:#231f20;stroke-miterlimit:10;stroke-width:6px;}</style><linearGradient id="New_Gradient_Swatch_1" x1="786.13" y1="1401.1" x2="786.13" y2="1401.1" gradientUnits="userSpaceOnUse"><stop offset="0" stop-color="#007cf3"/><stop offset="1" stop-color="#3a4db9"/></linearGradient><linearGradient id="New_Gradient_Swatch_1-2" x1="1111.02" y1="703.24" x2="1111.02" y2="703.24" xlink:href="#New_Gradient_Swatch_1"/><linearGradient id="New_Gradient_Swatch_1-3" x1="411.72" y1="717.07" x2="747.53" y2="717.07" xlink:href="#New_Gradient_Swatch_1"/><linearGradient id="New_Gradient_Swatch_1-4" x1="804.16" y1="1108.38" x2="1092.03" y2="1108.38" xlink:href="#New_Gradient_Swatch_1"/><linearGradient id="New_Gradient_Swatch_1-5" x1="1430.58" y1="985.77" x2="1430.58" y2="985.77" xlink:href="#New_Gradient_Swatch_1"/><linearGradient id="New_Gradient_Swatch_1-6" x1="1429.02" y1="985.64" x2="1429.02" y2="985.64" xlink:href="#New_Gradient_Swatch_1"/><linearGradient id="New_Gradient_Swatch_1-7" x1="609.92" y1="1052.38" x2="1642.67" y2="1052.38" xlink:href="#New_Gradient_Swatch_1"/></defs><path class="cls-1" d="M786.13,1401.1" transform="translate(-153.64 -153.64)"/><path class="cls-2" d="M1111,703.24" transform="translate(-153.64 -153.64)"/><polygon class="cls-3" points="411.73 545.02 658.79 889.13 747.53 765.81 588.74 545.02 411.73 545.02"/><polygon class="cls-4" points="804.16 1093.11 914.89 1247.46 1092.03 1247.46 892.61 969.31 804.16 1093.11"/><path class="cls-5" d="M1430.58,985.77" transform="translate(-153.64 -153.64)"/><path class="cls-6" d="M1429,985.64" transform="translate(-153.64 -153.64)"/><path class="cls-7" d="M1642.67,915.32a211.58,211.58,0,0,1-11.35,68.6q-.42,1.25-.87,2.49a212.14,212.14,0,0,1-199.87,141H1317.8l196.56,273.72H1337.94l-248.7-341.19,54.85-73.53h286.49a71.09,71.09,0,1,0,0-142.17H1184.71L786.13,1401.1l-176.21.43L1111,703.24h319.55c92.2,0,170.65,58.83,199.88,141A211.76,211.76,0,0,1,1642.67,915.32Z" transform="translate(-153.64 -153.64)"/><path class="cls-8" d="M518.34,912.54h0a103.08,103.08,0,0,1-87.62-48.78L398,811.05q-9.39-15.22-18.79-30.43,0,10.33-.08,20.68V912.54H322V682.83h0a121.37,121.37,0,0,1,102.41,56.23L442.11,767q9.57,15.33,19.13,30.68-.14-23.42-.29-46.83v-68h57.39ZM397.93,844.59" transform="translate(-153.64 -153.64)"/><path class="cls-8" d="M506.56,1107.15V1162H426.15a92.42,92.42,0,0,1-92.42-92.42V932.31H506.56v53H402.9v33.32h83.8v51H402.9a37.52,37.52,0,0,0,37.52,37.52Z" transform="translate(-153.64 -153.64)"/><path class="cls-8" d="M420.14,1186.78A114.85,114.85,0,1,0,535,1301.63,114.85,114.85,0,0,0,420.14,1186.78Zm0,168.46a53.62,53.62,0,1,1,53.62-53.61A53.61,53.61,0,0,1,420.14,1355.24Z" transform="translate(-153.64 -153.64)"/><text class="cls-9" transform="translate(1489.03 630.45)">TM</text><circle class="cls-10" cx="870.36" cy="870.36" r="867.36"/></svg>